<?xml version="1.0" encoding="iso-8859-1"?>
<!-- Generator: Adobe Illustrator 19.0.0, SVG Export Plug-In . SVG Version: 6.00 Build 0)  -->
<svg version="1.1" id="Capa_1" xmlns="http://www.w3.org/2000/svg" xmlns:xlink="http://www.w3.org/1999/xlink" x="0px" y="0px"
	 viewBox="0 0 512 512" style="enable-background:new 0 0 512 512;" xml:space="preserve">
<g>
	<g>
		<path d="M451.133,244.876c-9.304-19.694-22.906-37.979-39.793-53.479l-6.333-76.151l-65.309,34.165
			c-22.943-7.813-47.155-11.77-72.071-11.77c-52.577,0-102.107,17.742-139.465,49.957c-26.576,22.917-44.787,51.213-53.339,82.122
			c-5.291-2.427-11.167-3.792-17.36-3.792c-23.04,0-41.784,18.744-41.784,41.784v37.89h41.784v-30H45.679v-7.89
			c0-6.498,5.286-11.784,11.784-11.784c6.497,0,11.783,5.286,11.783,11.784h0.043c-0.02,1.02-0.043,2.04-0.043,3.063
			c0,49.721,24.173,96.545,66.563,129.421L144.747,512h85.244l5.401-30.374c19.732,2.815,40.052,3.021,59.864,0.612L298.96,512
			h85.245l12.38-69.625c23.938-17.873,42.623-40.382,54.554-65.701l45.183-12.352V257.229L451.133,244.876z M429.276,351.549
			l-2.815,6.781c-10.225,24.628-28.263,46.461-52.164,63.139l-5.098,3.556L359.068,482h-33.61l-4.33-34.783l-15.771,3.074
			c-25.798,5.028-53.258,4.788-78.965-0.722l-15.192-3.256L204.854,482h-33.611l-7.259-58.316l-5.292-3.825
			c-37.779-27.306-59.447-67.066-59.447-109.084c0-78.924,75.535-143.133,168.381-143.133c23.631,0,46.484,4.087,67.925,12.146
			l6.283,2.362l37.021-19.367l3.595,43.224l4.676,4.008c17.517,15.016,31.118,33.414,39.334,53.204l2.815,6.782l37.045,10.127
			v61.294h0L429.276,351.549z"/>
	</g>
</g>
<g>
	<g>
		<circle cx="368.32" cy="269.51" r="15"/>
	</g>
</g>
<g>
	<g>
		<rect x="197.28" y="210.97" width="106.88" height="30"/>
	</g>
</g>
<g>
	<g>
		<path d="M250.72,0c-29.632,0-53.739,24.107-53.739,53.739c0,29.632,24.108,53.739,53.739,53.739
			c29.632,0,53.739-24.107,53.739-53.739C304.458,24.107,280.352,0,250.72,0z M250.72,77.478c-13.09,0-23.739-10.649-23.739-23.739
			c0-13.09,10.65-23.739,23.739-23.739c13.09,0,23.739,10.649,23.739,23.739C274.459,66.829,263.81,77.478,250.72,77.478z"/>
	</g>
</g>
</svg>
